<?xml version="1.0"?>
<svg id="Layer_2" data-name="Layer 2" xmlns="http://www.w3.org/2000/svg" viewBox="0 0 379.77 328.11">
  <defs>
    
  </defs>
  <g id="Layer_1-2" data-name="Layer 1">
    <g>
      <path fill="#f9f2d8" d="M379.77,149.2l-3.71-44.07-14.79-12.97.65-2.5c-.8-3.7-2.09-7.19-3.91-10.45l7.05-14.21-10.3-3.8,5.61-6.32-11.27-3.77,3.31-2.99-7.93-5.41c-4.68-3.19-10.38-4.4-15.87-4.07l-.3-2.09-7.95-6.53-16.82,8.71c-1.22-.4-2.47-1.11-3.73-1.93l-9.85,5.23c-.09-2.74.73-5.97.09-8.48-2.64-8.45-5.94-16.3-10.13-24.09l-14.9-9.45-4.86,4.18,2.57,17.81c.52,3.6-.37,7.78-1.89,10.98l-3.87,8.15-5.26,3.12-2.02-6.02-11.82,1.18c-3.08.31-6.42-2.11-9.6-2.5l3.21-6.22-13.45-1.99-3.96,2.17-3.05-4.39-13.13-2.03c-.84,2.91-1.44,6-1.69,9.13l-10.39-1.52-1.48,9.71c-3.56-4.06-5.45-9.53-6.75-14.66.16-6.79,2.55-13.02,5.12-19.16l1.71-4.08-9.99-1.07-12.55,4.75c-2.93,3.84-5.93,7.78-7.77,12.23l-3.35,8.11-18,7.62,1.44-14.7-39.91,17.68,3.3-11.01-28.07,1.52-14.71.97-6.73,5.28-2.46-12.2C29.78,33.81,14.84,45.07,0,56.89l6.46,77.2,8.31-.83-7.73,83.94,15.34-12.52,33.01-21.25-3.34,15.59,9.92-6.48,14.2,51.2,6.12-1.83-20.8,57.69,4.66-.43-.82,3.39c-1.92,1.73-2.32,4.46-1.59,6.88l-4.55,18.08.88.6,87.19-9.63,174.45-19.11,2.86-11.89c.22-.91.77-1.44,1.77-2.15l1.57-6.21c.1-.4-.62-1.7-.76-1.98l3.84-16.03,5.62-5.94,8.17-29.48,14.18-51.56,12.1-7.39-6.34-2.5,15.04-15.03Z"></path>
      <g>
        <g>
          <path fill="#3b56a6" d="M31.69,120.82l-9.97-4.51-4.82-56.16,22.97-17.56.88,21.13c.61,11.31,1.07,22.08,2.66,33.56l15.58-54.86,23.55-2.57-15.08,49.98-8.29,27.53-5.78,48.32-27.26,18.55,5.56-63.4Z"></path>
          <path fill="#3b56a6" d="M81.01,126.36l-3.62,12.94-18.01,9.06,6.5-33.33,17.02-63.74,18.52-4.41,10.01,76.97-18.59,11.06-1.02-13.89-10.82,5.35ZM91.13,102.92l-1.81-21.34-5.29,24.52,7.1-3.17Z"></path>
          <path fill="#3b56a6" d="M139.56,110.92l-8.03-10.25-.89,20.11-15.58,5.45.11-75.27,15.4-5.01.52,30.75,16.54-35.27,4.34,8.46c1.57,4.16,3.59,7.76,6.22,11.4l-14.76,25.11,18.84,19.12-2.6,10.16-13.43,4.22-6.67-8.98Z"></path>
        </g>
        <path fill="#3b56a6" d="M165.22,167.85l-15.07,3.06-3.12-2.93c-9.33,7.82-29.77,12.08-31.46.87-1.18-7.82,5.07-14.58,12.47-18.16-2.85-2.98-3.35-6.91-1.91-10.76,1.87-5.01,6.14-8.48,11.23-10.21,6.63-2.26,15.78-2.9,17.5,2.65,2.21,7.11-3.62,13.37-10.34,17.2l5.12,4.69,4.55-6.7,9.76,2.53-7.56,9.82,8.84,7.93ZM143.85,136.47c-1.67-1.23-6.04.09-6.76,3.77-.34,1.74.95,3.91,2.72,4.75,3.99-2.3,5.83-7.2,4.04-8.53ZM140.77,162.91l-7.59-6.9c-4.26,2.13-6.44,7.14-4.39,9.36,2.21,2.39,8.3.29,11.98-2.46Z"></path>
        <g>
          <path fill="#e41e25" d="M210.34,227.43l-27.97,6.92-3.91,16,44.88-13.1-6.87,27.85-78.02,17.68,8.97-31.88,17.35-60.73,3.35-11.7,67.57-14.41-8.64,26.67-36.57,7.83-2.43,10.56-.2,2.86c.93-1.57,2.04-2.61,3.75-2.73l23.63-6.97-4.89,25.16Z"></path>
          <polygon fill="#e41e25" points="133.02 236.11 118.37 272.41 82.6 283.07 100.92 232.05 88.65 225.97 76.38 182.32 102.98 166.78 113.99 211.35 131.32 179.55 167.4 173.11 147.96 209.47 133.02 236.11"></polygon>
          <polygon fill="#e41e25" points="235.27 267.2 252.24 193.37 231.67 196.94 239.39 168.44 308.36 159.62 298.32 189.26 280.61 191.75 266.34 259.29 235.27 267.2"></polygon>
          <polygon fill="#e41e25" points="324.74 252.54 293.47 260.47 309.31 194.75 343.75 184.59 324.74 252.54"></polygon>
          <polygon fill="#e41e25" points="345.44 177.83 309.49 187.95 315.28 164.05 352.01 157 345.44 177.83"></polygon>
        </g>
        <g>
          <path fill="#3b56a6" d="M109.86,303.33l-2.11,9.14-4.81.69,4.06-18.51,5.45-1,1.05,6.95,4.02-7.68,5.58-.69-3.79,18.41-4.8.91,1.84-9.34-3.34,5.51c-.22.37-1.74.64-2.08.58l-1.08-4.98Z"></path>
          <polygon fill="#3b56a6" points="307.58 282.54 302.76 283.27 306.62 264.82 311.6 264.03 313.55 271.7 315.38 263.51 320.12 262.8 316.31 281.04 311.58 282.03 309.52 274.02 307.58 282.54"></polygon>
          <polygon fill="#3b56a6" points="202.55 298.19 197.8 298.96 201.63 280.58 206.54 279.8 208.32 287.59 210.25 279.3 214.94 278.56 211.02 296.96 206.43 297.68 204.44 289.46 202.55 298.19"></polygon>
          <polygon fill="#3b56a6" points="83.36 315.85 78.35 316.75 82.23 298.29 87.4 297.52 85.83 304.86 88.62 303.97 90.17 297.09 95.2 296.33 91.22 314.73 86.22 315.57 87.68 308.52 84.86 308.84 83.36 315.85"></polygon>
          <polygon fill="#3b56a6" points="273.09 287.73 277.01 269.14 281.89 268.66 280.48 275.74 283.12 275.16 284.66 268.15 289.61 267.45 285.72 285.82 280.87 286.59 282.17 279.56 279.47 279.93 278.01 287.12 273.09 287.73"></polygon>
          <path fill="#3b56a6" d="M226.13,294.81l-4.85.85,3.83-18.49,4.76-.76-.77,6.27,3.91-6.58,5.08-.87-5.13,8.65,1.48,9.66-5.21.88-.77-7.14c-1.63,2.73-1.61,4.72-2.32,7.52Z"></path>
          <path fill="#3b56a6" d="M190.43,297.07l-3.47.52-.94,3.16-5.19.77,7.57-19.1,7.02-.96.03,17.92-4.92.74-.1-3.04ZM190.8,293.29l.14-6.25-2.5,6.39,2.36-.14Z"></path>
          <polygon fill="#3b56a6" points="300.05 276.41 295.5 277.21 294.65 280.67 300.88 279.86 299.86 283.74 288.98 285.45 292.88 266.92 303.67 265.17 302.79 269.23 297.05 270 296.33 273.33 300.8 272.73 300.05 276.41"></polygon>
          <path fill="#3b56a6" d="M267.28,282.91l4.24-.63c-.29,2.23-.51,5.07-2.66,5.97-2.54,1.07-7.68,1.8-8.85.59-.43-.45-.55-1.85-.4-2.56l2.39-11.32c.71-3.37,4.08-4.4,7.11-4.7,1.92-.19,3.2-.4,4.77.82l-.95,4.85-4.15.46.32-1.98c.07-.46-2.19-.14-2.29.33l-2.22,10.3s.23.55.79.64c.4.07.81-.11,1.05-.45.16-.15.35-.37.86-2.32Z"></path>
          <path fill="#3b56a6" d="M172.3,296.83l-2.03-11.8,5.05-.68.68,6.75,3.47-7.39,4.98-.67-6.95,13.3-1.41,5.95-5,.76c.34-2.14,1.46-4.65,1.19-6.22Z"></path>
          <polygon fill="#3b56a6" points="253.05 290.68 248.29 291.51 251.29 277.05 247.55 277.49 248.57 273.55 260.5 271.63 259.6 275.78 256.07 276.36 253.05 290.68"></polygon>
          <polygon fill="#3b56a6" points="150.72 302.36 149.6 306.2 138.88 307.82 142.82 289.48 147.78 288.58 144.76 303.05 150.72 302.36"></polygon>
          <polygon fill="#3b56a6" points="99.67 313.53 94.51 314.42 98.51 295.9 103.59 295.07 99.67 313.53"></polygon>
          <path fill="#3b56a6" d="M241.93,292.43l-4.95.77,3.85-18.18c1.24-.57,3.15-.88,5-.93l-3.9,18.35Z"></path>
          <path fill="#3b56a6" d="M129.59,291.16l-7.81,19.04,5.09-.87,1.02-2.68h0c.09-.14.19-.25.3-.33.62-.43,2.49-.65,3.17-.69l.16,3.33,4.92-.79.18-18.06-7.03,1.06ZM131.81,301.92l-2.23.26,2.44-6.44-.21,6.18Z"></path>
          <path fill="#3b56a6" d="M159.6,286.92l-7.81,19.04,5.09-.87,1.02-2.68h0c.09-.14.19-.25.3-.33.62-.43,2.49-.65,3.17-.69l.16,3.33,4.92-.79.18-18.06-7.03,1.06ZM161.82,297.68l-2.23.26,2.44-6.44-.21,6.18Z"></path>
          <polygon fill="#3b56a6" points="109.86 303.33 111.49 311.04 116.35 302.22 109.86 303.33"></polygon>
          <polygon fill="#3b56a6" points="88.62 303.97 85.06 304.09 84.56 307.22 89.13 305.89 88.62 303.97"></polygon>
        </g>
      </g>
      <g>
        <path fill="#3b56a6" d="M252.12,88.85c.45.25,1.02.67,1.56,1.17-1.95-1.05-5.3-3.28-6.21-6.48,1.23,2.6,2.3,3.98,4.65,5.32Z"></path>
        <path fill="#3b56a6" d="M258.32,91.2v3.39l-3.19-3.85s-.58-.23-1.43-.7c-.01,0-.01-.01-.01-.01-1.95-1.05-5.3-3.28-6.21-6.48l-4.16-3.25,2.32-1h4.15s.02,4.69,8.53,11.91Z"></path>
        <g>
          <path fill="#3b56a6" d="M237.47,132.72s-.02.05-.02.05l10.6-2.83c-4.35,6.29-12.8,27.74-16.14,34.51l-5.42.49,12.36-28.31-7.92,2.45c2.28-7.8,5.76-13.99,9.24-20.91,0,0,4.75-11.76,9.15-14.9l4.34,1.23c-.3.38-.62.76-.94,1.17-7.9,9.58-14.82,26.03-15.25,27.05Z"></path>
          <path fill="#3b56a6" d="M274.55,15.72c-1.55-2.12-3.95-3.51-6.28-4.64l1.06,13.4c.99,12.55-6.93,25.37-19.79,27.54l-3.49-4.46c-1.08-1.38-1.49-2.84-3.96-2.22-1.27.32-3.66.63-4.92.3l-6.76-1.77c-4.33-1.14-7.12-3.72-7.03-8.72-3.14.67-5.8,2.15-6.4,5.75-2.72-1.56-5.47-3.61-7.61-6.22-.98-1.18-1.73-1.94-3.27-2.93-1.48,3.41-1.95,6.05-1.44,9.85l-8.46-1.94c-.73-.17-2.82-.01-2.78.73.2,2.7,1.31,4.68,2.48,6.72l-7.04,2.72c-11.51-4.17-16.44-18.49-14-29.89l1.85-8.63c-3.49-.6-6.05.97-8.18,3.41-4.82,5.51-8.21,12.13-9.74,19.4-3.26,15.48,5.71,29.61,20.14,35.58-2.91,1.69-5.41,3.51-7.49,5.95-1.94,2.28-4.35,3.53-7.36,4.58,2.32,7.1,8.45,8.34,15.67,7.64l1.32,5.48c-4.02,1.51-6.75,5.49-7.19,10.24l-.79,8.23c-.45,4.74,1.38,8.81,5.19,11.25-.15.77-.37,2.22-.15,2.89,1.31,3.91,6.01,6.43,9.9,5,4.47,3.59,11.38-.37,16.13-4.1,7.53,1.34,14.72,1.28,19.68-5.04l5.44,1.63c1.92-1.06,3.31-1.5,5.27-1.12,0,0,4.75-11.76,9.15-14.9l4.58-3.28h.02s.01-.02.01-.02l.9-.65.22-.16,3.7-2.65c2.91-2.08,5.76-4.35,7.24-7.56l-2.08-1.91c-8.86-2.32-9.37-5.62-10.85-7.66,1.23,2.6,2.3,3.98,4.65,5.32.45.25,1.02.67,1.56,1.17,0,0,0,.01.01.01.13.13.25.25.38.38.14.15.28.31.4.47.07.08.14.17.19.25.13.17.24.35.34.54h0c.07.15.14.29.19.44.04.08.07.18.1.28v.02c.03.1.05.19.06.29.02.13.03.24.03.36,0,.1-.01.19-.02.29-.02.19-.07.39-.16.57-.04.1-.1.19-.15.29-1.45,2.37-4.57,3.7-7.1,5.42l-.56-5.07c-.18-1.56-1.94-1.94-3.41-1.17l.44-4.38c.24-2.36-3.01-2.21-2.47-4.53l5.52-.93c-1.48-2.03-1.84-4.24-1.84-4.24l-5.27-.2c-.01-4.31-4.99-5.47-8.31-10.76-3.7,2.63-7.46,5.15-12.42,6.41l2.8-6.14c-6.94,3.99-13.37,6.95-21.18,6.73l3.4-6.43-9.5,3.51c-1.21.45-3.83.11-5.03.08l2.48-4.84c-3.45.68-5.38,1.06-8.82.19,2.59-4.49,5.34-7.77,9.46-11.6l-5-1.75c4.11-3.41,8.43-4.5,13.88-5.25l-3.36-3.68c-.42-.46-.8-1.32-1.05-2.32l12.55,3.17c-1.59-3.06-2.49-5.6-2.06-8.74,3.66,3.78,7.3,7.04,12.3,8.98-.3-2.93-.67-4.84.4-7.25,1.18,4.12,3.97,6.2,7.75,7.23l6.65,1.81c2.39.65,5.23.23,7.55-.21.14.48.47,1.56.73,1.86l2.52,2.73c-1.31.93-2.58,1.91-3.03,3.25-2.21,6.34.02,12.49,5.59,16.59,0,0,5.51.87,10.3-.56l6.15-2.25s8.46-4.64,13.06-10.2c10.82-14.88,6.74-29.78-3.63-43.91ZM170.1,83.15l4.53-2.48c1.49-.82,2.98-1.49,4.58-1.55l.4,5.16c-3.1.91-6.6.53-9.52-1.12ZM191.13,129.16c-1.2.08-2.84-2.19-3.37-2.97l-3.23,1.62c-2.06-.36-3.55-3.16-2.7-4.95,3.35-1.84,7.71-2.01,11.29-.65l7.44,2.82c-2.99,2.39-5.75,3.83-9.43,4.12ZM233.83,79.1l.17,5.7-5.26,5.65c-1.29,1.4-2.29,2.98-3.41,4.98l-3.51.74c-.48.1-1.64-.86-1.93-1.31l9.64-14.05c1.03-1.5,2.04-2.26,4.31-1.71ZM222.48,78.99l4.11.12-7.66,11.2-2.72,3.89-4.21-.21,10.48-14.99ZM221.04,98.38c1.25,2.04,2.8,3.52,4.51,5.14-3.83,5.58-.42,13.63-6.06,17.8-4.27,3.17-10.42,3.52-15.53,1.56l-10.04-3.84c-4.54-1.74-9.35-1.43-13.72.84-2.96-1.98-3.62-5.51-3.25-9l.72-6.97c.33-3.19,1.92-6.7,5.49-7.61,5.56-1.41,11.59-1.62,17.44-.81l20.44,2.9ZM194.28,80.48c.31-.51.6-1.53,1.07-1.61.57-.11,1.95-.04,2.37.03l-2.54,3.94-4.49,7.33c-.87,1.4-1.47,2.82-3.57,1.98l7.15-11.67ZM189.95,78.88c.6-.47,2.26-.44,3.01-.1l-8.01,13.99c-.83-.21-2.03-2.07-1.58-2.81l6.58-11.08ZM180.86,66.4c-14.27-5.01-22.34-20.18-17.61-34.89,1.59-4.96,3.98-9.38,7.65-13.4-1.58,13.82,2.07,27.76,14.61,33.85l-3.19,2.35,5.44,3.33-6.91,8.77ZM270.83,62.15c-5.86,4.85-12.87,7.14-20.8,7.68-4.16-3.42-5.88-8.86-3.41-13.57l9.72-2.92c12.49-5.21,17.73-19.6,16.65-33.37,2.99,3.98,5.09,8.19,6.61,12.88,3.46,10.73-.12,22.14-8.78,29.3Z"></path>
          <path fill="#3b56a6" d="M253.66,104.51c-.3.38-.62.76-.94,1.17-7.9,9.58-14.82,26.03-15.25,27.05-.01.03-.02.05-.02.05v-1.51l11.87-27.99,11.08-10.17s.44,2.47-6.74,11.4Z"></path>
        </g>
        <path fill="#3b56a6" d="M202.16,112.51c.34.32,1.64.34,2.13.15,4.33-1.69,7.91-.69,9.38-2.84l2.94-4.29-3.56.85c-4.69,1.66-12.84,4.28-10.9,6.13Z"></path>
        <path fill="#3b56a6" d="M183.6,102.67c-.37-.44-2.25-.59-2.54-.14-1.34,2.15,1.21,5.08,3.97,7.35l2.55,2.1c.81-.89,1.46-2.78.62-3.79l-4.6-5.52Z"></path>
      </g>
      <g>
        <path fill="#e41e25" d="M364.85,116.24l3.69-.34c-.34-3.17-2.28-5.55-4.58-7.78l-10.06-9.76.12-5.38c.02-.97-2.49-1.3-3.75-1.15,1.57-2.96.49-5.93-1.72-8.21,2.88-2.23,5.81-4.82,6.74-8.92-4-1.05-7.82-2.39-11.4-4.69l4.07-3.74c-3.86-2.75-7.4-4.68-11.89-6.62l6.03-5.05c-4.76-2.36-9.63-3.25-14.79-3.26.64-3,.75-6.06-.16-8.58l-19.97,8.74-.74-3.33-11.83,6.78c-3.16,1.81-5.32,4.85-7.22,8.01-.41.24-1.89-1.08-1.53-1.58-4.61,5.56-13.07,10.2-13.07,10.2l.55,3.88c.08.57-.55,1.7-1.19,2.5l-5.51-4.14c-4.8,1.43-10.31.56-10.31.56l-3.6,1.65.58,5.01s.36,2.21,1.84,4.24,1.99,5.33,10.85,7.66c1.88-.16,3.69-.22,4.23-1.38l4.86-10.39c.83-1.77,2.41-3.29,4.01-4.52l-2.53-4.07c.73-2.96,3.5-4.19,6.31-4.28l1.8-2.08,1.68,4.21c1.23-.71,1.86-1.57,2.41-2.94,2.64-6.65,8.41-10.53,14.71-13.9l.25,4.26c2.73-2.32,5.49-3.4,8.45-4.66l12.42-5.26-2.75,8.21c4.79-1.32,9.01-1.94,13.65-.37l-6.34,5.89c5.72.91,9.89,2.34,13.67,5.55l-4.43,2.62c3.41,3.49,7.45,5.81,12.07,7.25-1.32,1.99-3.66,4.54-5.9,3.68l-2.95-1.13c-1.75,1.21-4.2,2.99-6.23,2.35l-6.93-2.17,1.93,5.37c-4.47.34-8.68-.87-12.72-3.13l-10.45-5.85c-.28-.16-1-.25-1.26-.22-.26.03-.3.91-.2,1.18l1.31,3.35c-3.41-1.64-6.76-2.68-9.99-.88l-7.31,4.08c1.61.86,2.85,1.07,4.55,1.22-2.04,2.5-3.83,5.08-5.12,7.99l-8.97,2.47c-2.56-1.96-5.76-2.36-8.4-.68-.4,2.34.34,5.32,1.81,7.41,1.33,1.9,4.76,3.41,6.72,1.96,1.62-1.19,2.17-3.33,2.83-5.44l5.18-.55c-1.25,4.9-.29,8.18,2.02,12.44-2.63.19-5.71,1.65-6.16,3.97-.12.6,1.81,1.16,2.56,1.09-2.59,4.49-3.61,9.35-2.25,14.41l3.44,8.6c1.83-3.15,2.94-5.32,5.62-7.29l3.28,7.05c2.55,5.49,6.12,10.15,11.57,13.14,1.64-.53,2.92-1.74,4.05-3.67l13.84,8.34c3.98-1.73,6.6-4.95,9.04-8.51l3.07,1.9c3.51-4.28,6.72-8.51,7.63-13.87l.76-4.48c2.59-1.34,4.93-3.5,5.48-5.74.84-3.4-.51-6.03-2.41-8.6.34-.75.94-2.95.34-3.49l-3.31-3c2.9-.67,4.44-1.76,4.9-4.42l.64-3.7,7.14,6.93,3.48,3.59-4.39,1.13c5.67,7.52,7.82,17.65,8.41,26.54l-7.34-3.99c.47,6.27.91,10.92,0,17.25l4.38-.39.17-9.85,7.09,4.82c.77-11.37-1.9-22.06-6.58-32.06ZM266.75,89.15c-3.82.21-6.95-2.06-8.95-5.25l4.83-1.41,6.6,2.73-2.48,3.92ZM279.95,101.95c-.47.54-2.46.17-2.99-.36-1.16-1.15-1.78-2.67-2.21-4.89l6.32,2.14c-.2,1.18-.65,2.57-1.12,3.11ZM296.19,87.55l4.18-.87-4-3.36c1.81-.78,4.13-2.07,5.74-1.58l7.3,2.25v-3.35c6.55,5.24,14.79,8.39,23.52,7.56l.05-3.32c2.11-.13,3.63-.11,5.35,1.55l3.46-2.2c2.65-.76,5.73,2.02,5.72,4.41l-1.58.99c-.36.22-.06,1.19.15,1.96l-15.52-.73c-2.22,1.09-4.65,1.27-6.96-.47l-23.24-1.4c-1.6-.1-2.8.9-3.33,2.51l-4.26.7c.69-1.66,2.03-3.87,3.41-4.65ZM345.37,95.28c-.18,1.94-.48,3.53-1.59,5.51l-.74-5.88,2.33.37ZM315.3,95.37l-1.36-2.64,7.82.64c-.32,5.57-.57,12.83-3.9,11.39l.42-10.8-2.98,1.41ZM291.74,97.77l5.55-.17.48,8.79-5.23,2.27-1.58-6.01c-.35-1.33.28-3.71.77-4.88ZM348.07,114.55l-3.66,2.06c-2.01,2.08-4.22,3.96-7.16,4.62-8.51,1.93-17.27,1.61-25.46-1.57l-7.58-4.22c-.51-.28-.73-1.56-.68-2.2-1.88-.6-5.04.43-5.17,2.55,1.06,0,2.33.13,2.9.66,5.53,5.14,12.21,8.01,19.69,8.81,8.57.91,17.76.56,24.16-5.11l1.73-2.24c2.46,2.56,3.86,6.32,1.09,9.11l-3.44,2.52c-.7,6.05-2.74,12.05-7.07,16.35l-2.64-1.69c-2.4,3.31-4.71,6.36-8.02,8.76l-14.18-8.6-3.75,3.67c-8.25-4.06-8.5-12.9-13.93-20.49l-5.95,4.95-1.09-4.82c-1.87-8.3,4.51-19.52,15.37-19.08l12.12.49c.23.78.87,1.77,1.35,1.88.9-2.86,2.35-3.43,5.13-3.88,1.41-1.46,2.1-4.41,2.73-6.78.25-.93,2.59-1.13,3.78-.76,2.03.64,1.8,4.79,3.84,7.71,2.45.52,4.09,1.44,4.63,4.29,1.4-2,3.33-1.78,5.05-.75l6.2,3.74ZM348.77,105.67c-.06.36-.41,1.28-.71,1.29l-1.8.07.24-5.94,1.22-6.22,2.68.45-1.62,10.36Z"></path>
        <path fill="#e41e25" d="M254.9,120.87l9.66-3.11-2.26,4.52s-13.72,33.83-18.13,42.66h-4.74c2.75-5.51,13.53-33.46,16.82-40.05l-10.31,3.32,2.03-4.39c.05-.12,1.38-2.95,4.07-6.15,1.73-2.05,8.11-14.84,11.73-22.41l3.83,1.83c-.99,2.06-9.67,20.19-12.31,23.32-.13.16-.25.31-.38.47Z"></path>
      </g>
      <polygon fill="#f9f2d8" points="228.31 150.83 243.31 147.12 240.96 152.97 257.79 147.12 246.2 166.78 239.39 168.44 237.44 163.05 231.91 164.45 223.56 166.03 228.31 150.83"></polygon>
    </g>
  </g>
</svg>